<mxfile host="app.diagrams.net" agent="Mozilla/5.0 (Windows NT 10.0; Win64; x64) AppleWebKit/537.36 (KHTML, like Gecko) Chrome/128.0.0.0 Safari/537.36 Edg/128.0.0.0" version="24.7.14">
  <diagram name="Page-1" id="QyOMAX7QdyraRiypskpR">
    <mxGraphModel dx="983" dy="579" grid="1" gridSize="10" guides="1" tooltips="1" connect="1" arrows="1" fold="1" page="1" pageScale="1" pageWidth="850" pageHeight="1100" math="0" shadow="0">
      <root>
        <mxCell id="0" />
        <mxCell id="1" parent="0" />
        <mxCell id="PJNQxhvt2oJ8CktxK9Kg-35" value="ADD SUBSCRIBER FLOWCHART" style="text;strokeColor=none;fillColor=none;html=1;fontSize=24;fontStyle=1;verticalAlign=middle;align=center;" vertex="1" parent="1">
          <mxGeometry x="375" y="90" width="100" height="40" as="geometry" />
        </mxCell>
        <mxCell id="PJNQxhvt2oJ8CktxK9Kg-52" value="SOP" style="text;strokeColor=none;fillColor=none;html=1;fontSize=24;fontStyle=1;verticalAlign=middle;align=center;" vertex="1" parent="1">
          <mxGeometry x="375" y="60" width="100" height="40" as="geometry" />
        </mxCell>
        <mxCell id="PJNQxhvt2oJ8CktxK9Kg-1" value="Start" style="strokeWidth=2;html=1;shape=mxgraph.flowchart.start_1;whiteSpace=wrap;" vertex="1" parent="1">
          <mxGeometry x="40" y="200" width="100" height="60" as="geometry" />
        </mxCell>
        <mxCell id="PJNQxhvt2oJ8CktxK9Kg-15" style="edgeStyle=orthogonalEdgeStyle;rounded=0;orthogonalLoop=1;jettySize=auto;html=1;exitX=1;exitY=0.5;exitDx=0;exitDy=0;exitPerimeter=0;entryX=0;entryY=0.5;entryDx=0;entryDy=0;" edge="1" parent="1" source="PJNQxhvt2oJ8CktxK9Kg-3" target="PJNQxhvt2oJ8CktxK9Kg-6">
          <mxGeometry relative="1" as="geometry" />
        </mxCell>
        <mxCell id="PJNQxhvt2oJ8CktxK9Kg-3" value="Tab&lt;div style=&quot;font-size: 11px;&quot;&gt;Subscriber Management&lt;/div&gt;" style="strokeWidth=2;html=1;shape=mxgraph.flowchart.decision;whiteSpace=wrap;fontSize=11;" vertex="1" parent="1">
          <mxGeometry x="30" y="280" width="120" height="100" as="geometry" />
        </mxCell>
        <mxCell id="PJNQxhvt2oJ8CktxK9Kg-6" value="List&lt;div&gt;Management&lt;/div&gt;" style="shape=parallelogram;html=1;strokeWidth=2;perimeter=parallelogramPerimeter;whiteSpace=wrap;rounded=1;arcSize=12;size=0.23;" vertex="1" parent="1">
          <mxGeometry x="160" y="300" width="120" height="60" as="geometry" />
        </mxCell>
        <mxCell id="PJNQxhvt2oJ8CktxK9Kg-7" value="Subscriber&lt;div&gt;Management&lt;/div&gt;" style="strokeWidth=2;html=1;shape=mxgraph.flowchart.decision;whiteSpace=wrap;" vertex="1" parent="1">
          <mxGeometry x="290" y="280" width="120" height="100" as="geometry" />
        </mxCell>
        <mxCell id="PJNQxhvt2oJ8CktxK9Kg-57" style="edgeStyle=orthogonalEdgeStyle;rounded=0;orthogonalLoop=1;jettySize=auto;html=1;exitX=0.5;exitY=1;exitDx=0;exitDy=0;exitPerimeter=0;" edge="1" parent="1" source="PJNQxhvt2oJ8CktxK9Kg-8">
          <mxGeometry relative="1" as="geometry">
            <mxPoint x="350" y="470" as="targetPoint" />
            <Array as="points">
              <mxPoint x="490" y="470" />
            </Array>
          </mxGeometry>
        </mxCell>
        <mxCell id="PJNQxhvt2oJ8CktxK9Kg-64" style="edgeStyle=orthogonalEdgeStyle;rounded=0;orthogonalLoop=1;jettySize=auto;html=1;exitX=1;exitY=0.5;exitDx=0;exitDy=0;exitPerimeter=0;entryX=0;entryY=0.5;entryDx=0;entryDy=0;" edge="1" parent="1" source="PJNQxhvt2oJ8CktxK9Kg-8" target="PJNQxhvt2oJ8CktxK9Kg-9">
          <mxGeometry relative="1" as="geometry" />
        </mxCell>
        <mxCell id="PJNQxhvt2oJ8CktxK9Kg-8" value="Add&amp;nbsp;" style="strokeWidth=2;html=1;shape=mxgraph.flowchart.decision;whiteSpace=wrap;" vertex="1" parent="1">
          <mxGeometry x="430" y="280" width="120" height="100" as="geometry" />
        </mxCell>
        <mxCell id="PJNQxhvt2oJ8CktxK9Kg-9" value="Input Data&lt;div&gt;Subscriber&lt;/div&gt;" style="shape=parallelogram;html=1;strokeWidth=2;perimeter=parallelogramPerimeter;whiteSpace=wrap;rounded=1;arcSize=12;size=0.23;" vertex="1" parent="1">
          <mxGeometry x="550" y="300" width="120" height="60" as="geometry" />
        </mxCell>
        <mxCell id="PJNQxhvt2oJ8CktxK9Kg-12" value="End" style="strokeWidth=2;html=1;shape=mxgraph.flowchart.start_1;whiteSpace=wrap;" vertex="1" parent="1">
          <mxGeometry x="40" y="540" width="100" height="60" as="geometry" />
        </mxCell>
        <mxCell id="PJNQxhvt2oJ8CktxK9Kg-13" style="edgeStyle=orthogonalEdgeStyle;rounded=0;orthogonalLoop=1;jettySize=auto;html=1;exitX=0.5;exitY=1;exitDx=0;exitDy=0;exitPerimeter=0;entryX=0.5;entryY=0;entryDx=0;entryDy=0;entryPerimeter=0;" edge="1" parent="1" source="PJNQxhvt2oJ8CktxK9Kg-1" target="PJNQxhvt2oJ8CktxK9Kg-3">
          <mxGeometry relative="1" as="geometry" />
        </mxCell>
        <mxCell id="PJNQxhvt2oJ8CktxK9Kg-14" style="edgeStyle=orthogonalEdgeStyle;rounded=0;orthogonalLoop=1;jettySize=auto;html=1;exitX=0.5;exitY=1;exitDx=0;exitDy=0;exitPerimeter=0;entryX=0.5;entryY=0;entryDx=0;entryDy=0;entryPerimeter=0;" edge="1" parent="1" source="PJNQxhvt2oJ8CktxK9Kg-3" target="PJNQxhvt2oJ8CktxK9Kg-12">
          <mxGeometry relative="1" as="geometry" />
        </mxCell>
        <mxCell id="PJNQxhvt2oJ8CktxK9Kg-16" style="edgeStyle=orthogonalEdgeStyle;rounded=0;orthogonalLoop=1;jettySize=auto;html=1;exitX=1;exitY=0.5;exitDx=0;exitDy=0;entryX=0;entryY=0.5;entryDx=0;entryDy=0;entryPerimeter=0;" edge="1" parent="1" source="PJNQxhvt2oJ8CktxK9Kg-6" target="PJNQxhvt2oJ8CktxK9Kg-7">
          <mxGeometry relative="1" as="geometry" />
        </mxCell>
        <mxCell id="PJNQxhvt2oJ8CktxK9Kg-21" style="edgeStyle=orthogonalEdgeStyle;rounded=0;orthogonalLoop=1;jettySize=auto;html=1;exitX=1;exitY=0.5;exitDx=0;exitDy=0;exitPerimeter=0;entryX=-0.017;entryY=0.508;entryDx=0;entryDy=0;entryPerimeter=0;" edge="1" parent="1" source="PJNQxhvt2oJ8CktxK9Kg-7" target="PJNQxhvt2oJ8CktxK9Kg-8">
          <mxGeometry relative="1" as="geometry" />
        </mxCell>
        <mxCell id="PJNQxhvt2oJ8CktxK9Kg-56" style="edgeStyle=orthogonalEdgeStyle;rounded=0;orthogonalLoop=1;jettySize=auto;html=1;exitX=0.25;exitY=0;exitDx=0;exitDy=0;" edge="1" parent="1" source="PJNQxhvt2oJ8CktxK9Kg-26">
          <mxGeometry relative="1" as="geometry">
            <mxPoint x="90" y="470" as="targetPoint" />
            <Array as="points">
              <mxPoint x="350" y="470" />
              <mxPoint x="90" y="470" />
            </Array>
          </mxGeometry>
        </mxCell>
        <mxCell id="PJNQxhvt2oJ8CktxK9Kg-26" value="False" style="text;html=1;align=center;verticalAlign=middle;whiteSpace=wrap;rounded=0;fontSize=7;" vertex="1" parent="1">
          <mxGeometry x="335" y="380" width="60" height="30" as="geometry" />
        </mxCell>
        <mxCell id="PJNQxhvt2oJ8CktxK9Kg-27" value="True" style="text;html=1;align=center;verticalAlign=middle;whiteSpace=wrap;rounded=0;fontSize=7;" vertex="1" parent="1">
          <mxGeometry x="390" y="300" width="60" height="30" as="geometry" />
        </mxCell>
        <mxCell id="PJNQxhvt2oJ8CktxK9Kg-31" value="True" style="text;html=1;align=center;verticalAlign=middle;whiteSpace=wrap;rounded=0;fontSize=7;" vertex="1" parent="1">
          <mxGeometry x="130" y="300" width="60" height="30" as="geometry" />
        </mxCell>
        <mxCell id="PJNQxhvt2oJ8CktxK9Kg-32" value="False" style="text;html=1;align=center;verticalAlign=middle;whiteSpace=wrap;rounded=0;fontSize=7;" vertex="1" parent="1">
          <mxGeometry x="80" y="370" width="60" height="30" as="geometry" />
        </mxCell>
        <mxCell id="PJNQxhvt2oJ8CktxK9Kg-60" style="edgeStyle=orthogonalEdgeStyle;rounded=0;orthogonalLoop=1;jettySize=auto;html=1;exitX=0.5;exitY=1;exitDx=0;exitDy=0;exitPerimeter=0;" edge="1" parent="1" source="PJNQxhvt2oJ8CktxK9Kg-53" target="PJNQxhvt2oJ8CktxK9Kg-55">
          <mxGeometry relative="1" as="geometry" />
        </mxCell>
        <mxCell id="PJNQxhvt2oJ8CktxK9Kg-62" style="edgeStyle=orthogonalEdgeStyle;rounded=0;orthogonalLoop=1;jettySize=auto;html=1;exitX=1;exitY=0.5;exitDx=0;exitDy=0;exitPerimeter=0;" edge="1" parent="1" source="PJNQxhvt2oJ8CktxK9Kg-53">
          <mxGeometry relative="1" as="geometry">
            <mxPoint x="730" y="470.0000000000001" as="targetPoint" />
            <Array as="points">
              <mxPoint x="810" y="330" />
              <mxPoint x="810" y="470" />
            </Array>
          </mxGeometry>
        </mxCell>
        <mxCell id="PJNQxhvt2oJ8CktxK9Kg-53" value="Submit" style="strokeWidth=2;html=1;shape=mxgraph.flowchart.decision;whiteSpace=wrap;" vertex="1" parent="1">
          <mxGeometry x="670" y="280" width="120" height="100" as="geometry" />
        </mxCell>
        <mxCell id="PJNQxhvt2oJ8CktxK9Kg-61" style="edgeStyle=orthogonalEdgeStyle;rounded=0;orthogonalLoop=1;jettySize=auto;html=1;exitX=0.5;exitY=1;exitDx=0;exitDy=0;" edge="1" parent="1" source="PJNQxhvt2oJ8CktxK9Kg-55">
          <mxGeometry relative="1" as="geometry">
            <mxPoint x="490" y="470" as="targetPoint" />
            <Array as="points">
              <mxPoint x="730" y="470" />
            </Array>
          </mxGeometry>
        </mxCell>
        <mxCell id="PJNQxhvt2oJ8CktxK9Kg-55" value="Success" style="shape=parallelogram;html=1;strokeWidth=2;perimeter=parallelogramPerimeter;whiteSpace=wrap;rounded=1;arcSize=12;size=0.23;" vertex="1" parent="1">
          <mxGeometry x="690" y="400" width="80" height="40" as="geometry" />
        </mxCell>
        <mxCell id="PJNQxhvt2oJ8CktxK9Kg-65" style="edgeStyle=orthogonalEdgeStyle;rounded=0;orthogonalLoop=1;jettySize=auto;html=1;exitX=1;exitY=0.5;exitDx=0;exitDy=0;entryX=0;entryY=0.5;entryDx=0;entryDy=0;entryPerimeter=0;" edge="1" parent="1" source="PJNQxhvt2oJ8CktxK9Kg-9" target="PJNQxhvt2oJ8CktxK9Kg-53">
          <mxGeometry relative="1" as="geometry" />
        </mxCell>
        <mxCell id="PJNQxhvt2oJ8CktxK9Kg-66" value="True" style="text;html=1;align=center;verticalAlign=middle;whiteSpace=wrap;rounded=0;fontSize=7;" vertex="1" parent="1">
          <mxGeometry x="520" y="300" width="60" height="30" as="geometry" />
        </mxCell>
        <mxCell id="PJNQxhvt2oJ8CktxK9Kg-67" value="False" style="text;html=1;align=center;verticalAlign=middle;whiteSpace=wrap;rounded=0;fontSize=7;" vertex="1" parent="1">
          <mxGeometry x="450" y="379" width="60" height="30" as="geometry" />
        </mxCell>
        <mxCell id="PJNQxhvt2oJ8CktxK9Kg-68" value="False" style="text;html=1;align=center;verticalAlign=middle;whiteSpace=wrap;rounded=0;fontSize=7;" vertex="1" parent="1">
          <mxGeometry x="680" y="370" width="60" height="30" as="geometry" />
        </mxCell>
        <mxCell id="PJNQxhvt2oJ8CktxK9Kg-69" value="True" style="text;html=1;align=center;verticalAlign=middle;whiteSpace=wrap;rounded=0;fontSize=7;" vertex="1" parent="1">
          <mxGeometry x="770" y="301" width="60" height="30" as="geometry" />
        </mxCell>
      </root>
    </mxGraphModel>
  </diagram>
</mxfile>
